<?xml version="1.0" encoding="utf-8"?>
<!-- Generator: Adobe Illustrator 21.1.0, SVG Export Plug-In . SVG Version: 6.00 Build 0)  -->
<svg version="1.1"
	 id="Слой_1" image-rendering="optimizeQuality" text-rendering="geometricPrecision" shape-rendering="geometricPrecision"
	 xmlns="http://www.w3.org/2000/svg" xmlns:xlink="http://www.w3.org/1999/xlink" x="0px" y="0px" viewBox="0 0 6286.4 9587"
	 style="enable-background:new 0 0 6286.4 9587;" xml:space="preserve">
<style type="text/css">
	.st0{fill:#194C72;}
</style>
<g>
	<path class="st0" d="M93.7,5050c585,710,1390,1175,2302,1296c-29,30-52,74-76,101c-698,60-1329-88-1928-455
		C268.7,5694,158.7,5376,93.7,5050z"/>
	<path class="st0" d="M2659.7,6060c-38,35-100,97-129,132c-1069-224-1948-878-2517-1808c-42-586,12-1165,167-1731
		C395.7,4146,1298.7,5399,2659.7,6060z"/>
	<path class="st0" d="M3092.7,5721c-87,56-218,143-305,221c-1428-898-2217-2352-2332-4019c445-869,833-1330,1556-1923
		C1040.7,2157,1709.7,4410,3092.7,5721z"/>
	<path class="st0" d="M4197.7,1038c1093,699,2618,2677,1906,4458c-569,1421-1728,1779-2127,2032c-400,252-1182,962-892,2059
		c-837-358-1120-1218-845-1998c610-1735,1986-1480,2377-3803C4792.7,2739,4419.7,1467,4197.7,1038z M568.7,6382
		c522,284,1072,367,1649,219c-17,27-55,100-73,126c-405,204-830,210-1278,135C748.7,6695,680.7,6563,568.7,6382z M1043.7,7113
		c333,55,705-30,1004-199l-50,132c-187,214-492,293-744,305C1161.7,7278,1109.7,7189,1043.7,7113z"/>
</g>
</svg>
